<svg width="73" height="71" viewBox="0 0 73 71" fill="none" xmlns="http://www.w3.org/2000/svg">
<path fill-rule="evenodd" clip-rule="evenodd" d="M7.25282 67.1203L0.710205 69.5737V70.8005H15.84V69.5737L9.7063 67.1203L15.104 54.035H15.134L15.9513 51.9905H15.9218L23.572 33.5317L22.1593 31.0737L7.25282 67.1203ZM23.9285 26.7954L41.8135 68.0968C42.1336 68.386 42.4718 68.6602 42.8283 68.9195C44.6275 70.1735 46.9447 70.8005 49.7798 70.8005H59.5938V69.5737L55.5046 68.347L32.1966 12.7347H29.7431L23.9285 26.7954Z" fill="white"/>
<path fill-rule="evenodd" clip-rule="evenodd" d="M46.3155 37.8831L53.2627 34.9627C60.0854 32.0948 64.4153 28.7585 66.2526 24.954C68.104 21.1146 68.2251 17.2806 66.6157 13.4521C65.0476 9.72172 62.2669 7.1942 58.2735 5.8695C54.3047 4.53449 49.4488 5.07401 43.7061 7.48805L35.0654 11.1202L35.8546 12.9977L42.0656 10.3868C44.1762 9.49962 46.0206 8.9409 47.5988 8.71067C49.1666 8.4559 50.7961 8.89721 52.4871 10.0346C54.1923 11.1371 55.7413 13.345 57.134 16.6581C58.7124 20.413 59.2769 23.439 58.8274 25.736C58.4025 28.0228 57.4556 29.7204 55.9867 30.8288C54.5178 31.9372 52.544 33.0124 50.0652 34.0543L45.5108 35.9688L46.3155 37.8831Z" fill="white"/>
<rect x="66.0724" y="64.5779" width="6.22254" height="6.22254" fill="white"/>
</svg>
