<svg width="15" height="14" viewBox="0 0 15 14" fill="none" xmlns="http://www.w3.org/2000/svg">
<path d="M2.95206 0.000602337C1.92402 0.0433023 0.53667 1.48886 0.320219 3.07281C0.0847094 4.79622 1.22319 7.11604 3.502 9.55618C5.24077 11.418 6.81891 12.4373 9.23871 13.2615C11.5157 14.0371 13.3193 13.6981 14.2291 12.3234C14.7593 11.5222 14.9384 10.3091 14.5714 10.0044C14.4318 9.88864 13.62 9.45423 12.7674 9.03927C11.0045 8.18125 10.9497 8.18784 10.0679 9.36706C9.64053 9.93856 9.3728 10.1434 9.05385 10.1421C8.00163 10.1381 5.22221 7.94493 4.46785 6.52294L4.06381 5.7611L4.58966 5.2062C5.36828 4.38379 5.51406 4.0251 5.26767 3.5389C5.15369 3.31399 4.80868 2.55951 4.50086 1.86236C4.19305 1.16521 3.82244 0.461684 3.67727 0.299034C3.50536 0.106374 3.28942 0.0126785 3.05043 0.000968548C3.01611 -0.00103145 2.98127 0.000702337 2.95206 0.000602337Z" fill="white"/>
</svg>
