<svg width="103" height="101" viewBox="0 0 103 101" fill="none" xmlns="http://www.w3.org/2000/svg">
<path fill-rule="evenodd" clip-rule="evenodd" d="M9.64961 95.7351L0.289795 99.2451V101H21.9344V99.2451L13.1595 95.7351L20.8814 77.0155H20.9243L22.0936 74.0906H22.0514L32.9957 47.6836L30.9747 44.1671L9.64961 95.7351ZM33.5058 38.0466L59.092 97.1323C59.5498 97.546 60.0337 97.9382 60.5436 98.3091C63.1176 100.103 66.4325 101 70.4884 101H84.5282V99.2451L78.6783 97.4901L45.3339 17.9316H41.824L33.5058 38.0466Z" fill="white"/>
<path fill-rule="evenodd" clip-rule="evenodd" d="M65.5324 53.9098L75.471 49.732C85.2314 45.6291 91.4258 40.8562 94.0542 35.4135C96.7029 29.9209 96.8761 24.436 94.5737 18.959C92.3304 13.6224 88.3523 10.0065 82.6394 8.1114C76.9616 6.20154 70.0149 6.97337 61.7993 10.4269L49.4381 15.623L50.5672 18.3089L59.4525 14.5739C62.4719 13.3046 65.1105 12.5053 67.3682 12.176C69.6112 11.8115 71.9422 12.4428 74.3614 14.07C76.8009 15.6472 79.0168 18.8057 81.0092 23.5455C83.2673 28.9172 84.0748 33.2462 83.4319 36.5323C82.824 39.8037 81.4693 42.2323 79.3679 43.8179C77.2665 45.4036 74.4427 46.9418 70.8967 48.4324L64.3812 51.1712L65.5324 53.9098Z" fill="white"/>
<rect x="93.7964" y="92.0977" width="8.90191" height="8.90191" fill="white"/>
</svg>
