<svg width="45" height="44" viewBox="0 0 45 44" fill="none" xmlns="http://www.w3.org/2000/svg">
<g clip-path="url(#clip0)">
<path fill-rule="evenodd" clip-rule="evenodd" d="M38.0551 21.049C38.2352 21.2291 38.3363 21.4734 38.3363 21.728C38.3363 21.9827 38.2352 22.2269 38.0551 22.407L29.9071 30.555C29.727 30.7351 29.4828 30.8362 29.2281 30.8362C28.9734 30.8362 28.7292 30.7351 28.5491 30.555C28.369 30.3749 28.2679 30.1307 28.2679 29.876C28.2679 29.6213 28.369 29.3771 28.5491 29.197L35.058 22.6881L7.50021 22.6895C7.37395 22.6895 7.24893 22.6646 7.13228 22.6163C7.01563 22.568 6.90964 22.4972 6.82036 22.4079C6.73108 22.3186 6.66026 22.2126 6.61194 22.096C6.56362 21.9793 6.53875 21.8543 6.53875 21.728C6.53875 21.6018 6.56362 21.4767 6.61194 21.3601C6.66026 21.2434 6.73108 21.1375 6.82036 21.0482C6.90964 20.9589 7.01563 20.8881 7.13228 20.8398C7.24893 20.7914 7.37395 20.7666 7.50021 20.7666L35.058 20.7679L28.5491 14.2591C28.369 14.079 28.2679 13.8347 28.2679 13.5801C28.2679 13.3254 28.369 13.0811 28.5491 12.9011C28.7292 12.721 28.9734 12.6198 29.2281 12.6198C29.4828 12.6198 29.727 12.721 29.9071 12.9011L38.0551 21.049Z" fill="white"/>
</g>
<defs>
<clipPath id="clip0">
<rect width="30.7279" height="30.7279" fill="white" transform="translate(0.710205 21.728) rotate(-45)"/>
</clipPath>
</defs>
</svg>
