<svg width="37" height="36" viewBox="0 0 37 36" fill="none" xmlns="http://www.w3.org/2000/svg">
<g clip-path="url(#clip0)">
<path fill-rule="evenodd" clip-rule="evenodd" d="M31.1801 17.1739C31.327 17.3208 31.4095 17.5201 31.4095 17.7279C31.4095 17.9357 31.327 18.135 31.1801 18.2819L24.5321 24.9299C24.3852 25.0768 24.1859 25.1593 23.9781 25.1593C23.7703 25.1593 23.571 25.0768 23.4241 24.9299C23.2772 24.7829 23.1946 24.5837 23.1946 24.3759C23.1946 24.1681 23.2772 23.9688 23.4241 23.8219L28.7347 18.5113L6.2502 18.5124C6.14719 18.5124 6.04518 18.4921 5.95 18.4527C5.85483 18.4132 5.76835 18.3554 5.6955 18.2826C5.62266 18.2098 5.56488 18.1233 5.52546 18.0281C5.48603 17.9329 5.46574 17.8309 5.46574 17.7279C5.46574 17.6249 5.48603 17.5229 5.52546 17.4277C5.56488 17.3325 5.62266 17.2461 5.6955 17.1732C5.76835 17.1004 5.85483 17.0426 5.95 17.0032C6.04518 16.9637 6.14719 16.9434 6.2502 16.9434L28.7347 16.9446L23.4241 11.6339C23.2772 11.487 23.1946 11.2877 23.1946 11.0799C23.1946 10.8722 23.2772 10.6729 23.4241 10.5259C23.571 10.379 23.7703 10.2965 23.9781 10.2965C24.1859 10.2965 24.3852 10.379 24.5321 10.5259L31.1801 17.1739Z" fill="#62698F"/>
</g>
<defs>
<clipPath id="clip0">
<rect width="25.071" height="25.071" fill="white" transform="translate(0.710205 17.7279) rotate(-45)"/>
</clipPath>
</defs>
</svg>
